<svg xmlns="http://www.w3.org/2000/svg" data-author="YAXI GmbH" data-logo-id="1822direkt" data-maskable="false" data-primary-color="#003854" data-secondary-color="#ee0000" viewBox="0 0 250 250"><path fill="#003854" d="M0 0v250h250V0zm79.951 67.571 21.982.022c7.004 0 10.777 3.767 10.777 10.777v4.739a6.86 6.86 0 0 1-2.727 6.147 7.22 7.22 0 0 1 4.12 7.056v6.64c0 7.005-3.764 10.774-10.773 10.774H78.552c-7.005 0-10.777-3.767-10.777-10.774v-6.66a7.22 7.22 0 0 1 4.123-7.055 6.88 6.88 0 0 1-2.724-6.148v-4.741c0-7.004 3.765-10.777 10.777-10.777m45.154.012h24.871c7.78 0 12.737 4.61 12.737 12.177 0 7.266-4.866 11.323-12.11 12.83l-16.013 3.79a5.127 5.127 0 0 0-4.284 5.517v3.882h16.506v.032h9.301a5.8 5.8 0 0 1 2.298.456 5.6 5.6 0 0 1 1.87 1.265 6 6 0 0 1 1.247 1.87 5.7 5.7 0 0 1 .46 2.283v2.085h-40.772v-11.875c0-7.244 3.494-11.828 11.152-13.413l16.53-3.772c2.849-.713 4.718-2.598 4.655-5.308 0-2.632-2.03-4.053-5.449-4.053h-22.998zm47.705 0h24.87c7.78 0 12.737 4.61 12.737 12.177 0 7.266-4.866 11.323-12.109 12.83l-16.013 3.79a5.127 5.127 0 0 0-4.284 5.517v3.882h16.518v.032h9.311a5.8 5.8 0 0 1 2.3.456 5.6 5.6 0 0 1 1.87 1.265 6 6 0 0 1 1.248 1.87 5.7 5.7 0 0 1 .459 2.283v2.085H168.91v-11.875c0-7.244 3.494-11.828 11.155-13.413l16.528-3.772c2.847-.713 4.72-2.598 4.656-5.308 0-2.632-2.032-4.053-5.45-4.053h-22.99zm-124.39.008h7.158v38.51h5.816v7.664H40.298v-7.663h6.164V77.6h-6.377v-5.657zm32.583 7.581a3 3 0 0 0-.366.024 3.047 3.047 0 0 0-2.654 3.418v4.272a3 3 0 0 0 0 .733 3.05 3.05 0 0 0 3.396 2.656h19.167a3.2 3.2 0 0 0 .732 0 3.05 3.05 0 0 0 2.654-3.398v-4.263l-.01-.03a3.2 3.2 0 0 0 0-.732 3.05 3.05 0 0 0-3.396-2.656H81.37a3 3 0 0 0-.366-.024zm-1.24 18.672a3 3 0 0 0-.367.023 3.05 3.05 0 0 0-2.656 3.399v5.517a3.2 3.2 0 0 0 0 .732 3.044 3.044 0 0 0 3.379 2.666h21.63a3 3 0 0 0 .733 0 3.06 3.06 0 0 0 2.686-3.398v-5.53l-.012.01a3 3 0 0 0 0-.732 3.04 3.04 0 0 0-3.381-2.664H80.129a3 3 0 0 0-.366-.023m5.088 30.11a4.092 4.092 0 1 1 .202 8.18 4.1 4.1 0 0 1-4.102-4.092 4.09 4.09 0 0 1 3.9-4.088m-17.72.379h6.623v35.027h-26c-5.299 0-8.174-2.861-8.174-8.176l.012.01v-9.25c0-5.318 2.861-8.174 8.174-8.174H67.13zm89.389 0h6.643v21.389l15.296-11.958h9.822l-12.47 9.43 14.781 16.166h-9.236l-10.774-12.224-7.42 5.617v6.607h-6.643zm36.465 4.15h6.719v5.281h9.948v5.689h-9.948v11.64a2.315 2.315 0 0 0 2.004 2.584 2.4 2.4 0 0 0 .564 0h3.682a4.4 4.4 0 0 1 1.655.336 4.3 4.3 0 0 1 1.42.96 4.7 4.7 0 0 1 .948 1.418 4.4 4.4 0 0 1 .337 1.641v1.333h-9.17c-5.298 0-8.159-2.862-8.159-8.177zm-66.924 5.262h15.825c5.317 0 8.174 2.864 8.174 8.176v7.595h-25.552v1.85a2.297 2.297 0 0 0 2.002 2.564 2.3 2.3 0 0 0 .574 0h22.705v5.406H126.06c-5.317 0-8.174-2.86-8.174-8.174v-9.24c0-5.318 2.861-8.177 8.174-8.177zm-21.628.02h10.31v5.687h-9.16a2.315 2.315 0 0 0-2.578 2.015 2.2 2.2 0 0 0 0 .564v17.334h-6.746v-17.426c0-5.315 2.859-8.174 8.174-8.174zm-22.815 2.838h2.363a4.5 4.5 0 0 1 1.743.347 4.3 4.3 0 0 1 1.421.96 4.7 4.7 0 0 1 .947 1.418 4.4 4.4 0 0 1 .31 1.365v18.667h-6.784zm59.587 2.54a2 2 0 0 0-.322.017h-13.811a2.31 2.31 0 0 0-2.564 2.02 2.4 2.4 0 0 0 0 .565v2.366h18.945v-2.366a2.31 2.31 0 0 0-2.248-2.602zm-92.607.296a2.32 2.32 0 0 0-2.276 2.033 2.4 2.4 0 0 0 0 .561v9.063a2.315 2.315 0 0 0 2.014 2.578 2.4 2.4 0 0 0 .564 0h18.235v-14.2l-18.235-.018a2 2 0 0 0-.302-.017z"/><path fill="#e00" d="M203.21 174.44c8.176 0 7.08 7.974 7.08 7.974H46.72c-8.176 0-7.08-7.974-7.08-7.974z"/></svg>